# xmcd
# 
# Track frame offsets:
#     150
#     20247
#     39825
#     59925
# 
# Disc length: 1056
# 
# Revision: 1
# Processed by: cddbd v1.5.2PL0 Copyright (c) Steve Scherf et al.
# Submitted via: fre:ac v1.0.31
# 
DISCID=35041e04
DTITLE=遠藤一美 - 私だって
DYEAR=1994
DGENRE=Anime
TTITLE0=私だって
TTITLE1=瞬く気持ち
TTITLE2=私だって(カラオケ)
TTITLE3=瞬く気持ち(カラオケ)
EXTD=
EXTT0=
EXTT1=
EXTT2=
EXTT3=
PLAYORDER=
